# xmcd
#
# Track frame offsets:
#	150
#	21287
#	38501
#	55463
#	76996
#	91789
#	108931
#	126693
#	143397
#	157191
#	170638
#	187237
#	201927
#	218037
#	234469
#	249010
#	265087
#	285176
#	300904
#	320124
#
# Disc length: 4504 seconds
#
# Revision: 1
# Processed by: cddbd v1.5.2PL0 Copyright (c) Steve Scherf et al.
# Submitted via: audiograbber 1.83.01
#
DISCID=12119614
DTITLE=Diversen - 100 Nederpop Hits cd5
DYEAR=1900
DGENRE=
TTITLE0=De Poema's - Zij maakt het verschil
TTITLE1=Clouseau - Daar gaat ze
TTITLE2=Benny Neyman - Waarom fluister ik je naam nog
TTITLE3=VOF de Kunst - Suzanne
TTITLE4=Tim Immers - Liever dan lief
TTITLE5=The Scene - Iedereen is van de wereld
TTITLE6=Rene Froger - Alles kan een mens gelukkig maken
TTITLE7=Sarah - Ik laat me gaan
TTITLE8=Herman Brood and Van Dik Hout - Pijn
TTITLE9=Veldhuis - Oud geboren
TTITLE10=Alain Clark - Heerlijk
TTITLE11=Fontane - 1 and 1 =2
TTITLE12=Jan Tekstra - Neem me mee
TTITLE13=Vals Licht - Als dit de laatste dag was
TTITLE14=Maarten van Roozendaal - Tranen
TTITLE15=De Jongens van Dijk - Jij
TTITLE16=Spring and de Groot - Waterdicht
TTITLE17=Wij - De Oorlog meegemaakt
TTITLE18=Mozaiek - Jou alleen
TTITLE19=Tooske and Bastiaan - Alles
EXTD=
EXTT0=
EXTT1=
EXTT2=
EXTT3=
EXTT4=
EXTT5=
EXTT6=
EXTT7=
EXTT8=
EXTT9=
EXTT10=
EXTT11=
EXTT12=
EXTT13=
EXTT14=
EXTT15=
EXTT16=
EXTT17=
EXTT18=
EXTT19=
PLAYORDER=
